# xmcd
#
# Track frame offsets: 
#        150
#        16601
#        29431
#        42902
#        55943
#        66463
#        81504
#        92681
#        105549
#        118073
#        127627
#        137345
#        152443
#        169449
#        184012
#        195932
#        211478
#        222313
#
# Disc length: 3132 seconds
#
# Revision: 1
# Processed by: cddbd v1.5.1PL2 Copyright (c) Steve Scherf et al.
# Submitted via: ExactAudioCopy v0.95b4
#
DISCID=f10c3a12
DTITLE=Various Artist - Country Duets
DYEAR=2001
DGENRE=Country
TTITLE0=Barbara Mandrell and George Jones -  I was country when country 
TTITLE0=wasn't cool
TTITLE1=Patsy Kline and Jim Reeves - I fall to pieces
TTITLE2=Glen Campbell and Tanya Tucker - Dream lover
TTITLE3=Bill Anderson and Mary Lou Turner - Sometimes
TTITLE4=Reba McEntire and Jack Ward - I'd really love to see you tonight
TTITLE5=Tom T Hall and Dave Dudley - Day drinkin
TTITLE6=Conway Twitty and Loretta Lynn - Louisiana woman, Mississippi ma
TTITLE6=n
TTITLE7=Hank Williams Jr and Lois Johnson - So sad
TTITLE8=Mel Tillis and Sherry Bryce - Don't let go
TTITLE9=Margie Singleton and George Jones - Did i ever tell you
TTITLE10=Jack Green and Jeannie Seely - Wish I didn't miss you
TTITLE11=John Anderson and Waylon Jennings - Somewhere between ragged an
TTITLE11=d right
TTITLE12=Brenda Lee and The Oak Ridge Boys - Broken trust
TTITLE13=Lee Greenwood and Barbara Mandrell - To me
TTITLE14=Patti Page and Tom T Hall - We're not getting old
TTITLE15=Con Hunley and Porter Wagoner - Satisfied mind
TTITLE16=Margie Singleton and Faron Young - No thanks, I just had one
TTITLE17=Jan Howard and Bill Anderson - For loving you
EXTD=
EXTT0=
EXTT1=
EXTT2=
EXTT3=
EXTT4=
EXTT5=
EXTT6=
EXTT7=
EXTT8=
EXTT9=
EXTT10=
EXTT11=
EXTT12=
EXTT13=
EXTT14=
EXTT15=
EXTT16=
EXTT17=
PLAYORDER=
